{
	"asset":{
		"generator":"Khronos glTF Blender I/O v4.5.47",
		"version":"2.0"
	},
	"extensionsUsed":[
		"KHR_texture_transform"
	],
	"extensionsRequired":[
		"KHR_texture_transform"
	],
	"scene":0,
	"scenes":[
		{
			"name":"Scene",
			"nodes":[
				2,
				3,
				5,
				6,
				7,
				8,
				9
			]
		}
	],
	"nodes":[
		{
			"mesh":0,
			"name":"Wall Standard (Corner) Border.003",
			"translation":[
				-2.4356646463274956e-05,
				-3.135674342047423e-05,
				0
			]
		},
		{
			"mesh":1,
			"name":"Wall Standard (Corner) Border.006",
			"rotation":[
				0,
				0,
				1,
				1.6292068494294654e-07
			],
			"translation":[
				-191.3133544921875,
				375.5620422363281,
				2.8354141250019893e-05
			]
		},
		{
			"children":[
				0,
				1
			],
			"mesh":2,
			"name":"Wall Standard (Corner) Alt.003",
			"rotation":[
				0,
				-0.7071068286895752,
				0.7071068286895752,
				1.1520233300643667e-07
			],
			"scale":[
				0.009999999776482582,
				0.009999999776482582,
				0.009999999776482582
			],
			"translation":[
				-6.530292510986328,
				0,
				4.87196683883667
			]
		},
		{
			"mesh":3,
			"name":"Wall Standard (Window 3).006",
			"rotation":[
				0.5000001192092896,
				-0.4999999403953552,
				0.49999988079071045,
				0.5000001192092896
			],
			"scale":[
				0.009999999776482582,
				0.009999999776482582,
				0.009999999776482582
			],
			"translation":[
				-7.53056001663208,
				0,
				3.023928165435791
			]
		},
		{
			"mesh":4,
			"name":"Window Frame Ac 3.005",
			"translation":[
				0.00015073362737894058,
				2.5727887987159193e-05,
				0
			]
		},
		{
			"children":[
				4
			],
			"mesh":5,
			"name":"Window Frame 3 B.005",
			"rotation":[
				0.5000001192092896,
				-0.4999999403953552,
				0.49999988079071045,
				0.5000001192092896
			],
			"scale":[
				0.009999999776482582,
				0.009999999776482582,
				0.009999999776482582
			],
			"translation":[
				-7.53056001663208,
				0,
				3.023928165435791
			]
		},
		{
			"mesh":6,
			"name":"Plane.004",
			"scale":[
				4.852503299713135,
				4.852503299713135,
				4.852503299713135
			]
		},
		{
			"mesh":7,
			"name":"Wall Standard.001",
			"rotation":[
				0.7071068286895752,
				0,
				0,
				0.7071068286895752
			],
			"scale":[
				0.009999999776482582,
				0.009999999776482582,
				0.009999999776482582
			],
			"translation":[
				-5.872735500335693,
				0,
				1.1213815212249756
			]
		},
		{
			"mesh":8,
			"name":"Wall Standard (Door).006",
			"rotation":[
				0.5,
				0.5,
				-0.5,
				0.5000000596046448
			],
			"scale":[
				0.009999999776482582,
				0.009999999776482582,
				0.009999999776482582
			],
			"translation":[
				-3.6113500595092773,
				0,
				2.721876859664917
			]
		},
		{
			"mesh":9,
			"name":"Door Frame 2.001",
			"rotation":[
				0.5,
				-0.5,
				0.5,
				0.5000000596046448
			],
			"scale":[
				0.009999999776482582,
				0.009999999776482582,
				0.009999999776482582
			],
			"translation":[
				-3.6026816368103027,
				0,
				2.7981162071228027
			]
		}
	],
	"materials":[
		{
			"doubleSided":true,
			"name":"Palette",
			"pbrMetallicRoughness":{
				"baseColorTexture":{
					"index":0
				},
				"metallicFactor":0,
				"roughnessFactor":0.5
			}
		},
		{
			"doubleSided":true,
			"name":"Wooden Wall",
			"pbrMetallicRoughness":{
				"baseColorTexture":{
					"index":1
				},
				"metallicFactor":0,
				"roughnessFactor":0.5
			}
		},
		{
			"doubleSided":true,
			"name":"Bathroom tiles",
			"pbrMetallicRoughness":{
				"baseColorTexture":{
					"extensions":{
						"KHR_texture_transform":{
							"offset":[
								0,
								-10.499999046325684
							],
							"scale":[
								-16.499998092651367,
								11.499999046325684
							]
						}
					},
					"index":2
				},
				"metallicFactor":0,
				"roughnessFactor":0.5
			}
		}
	],
	"meshes":[
		{
			"name":"Cube.157",
			"primitives":[
				{
					"attributes":{
						"POSITION":0,
						"NORMAL":1,
						"TEXCOORD_0":2
					},
					"indices":3,
					"material":0
				}
			]
		},
		{
			"name":"Cube.007",
			"primitives":[
				{
					"attributes":{
						"POSITION":4,
						"NORMAL":5,
						"TEXCOORD_0":6
					},
					"indices":7,
					"material":0
				}
			]
		},
		{
			"name":"Cube.156",
			"primitives":[
				{
					"attributes":{
						"POSITION":8,
						"NORMAL":9,
						"TEXCOORD_0":10
					},
					"indices":11,
					"material":1
				}
			]
		},
		{
			"name":"Cube.330",
			"primitives":[
				{
					"attributes":{
						"POSITION":12,
						"NORMAL":13,
						"TEXCOORD_0":14
					},
					"indices":15,
					"material":1
				}
			]
		},
		{
			"name":"Cube.332",
			"primitives":[
				{
					"attributes":{
						"POSITION":16,
						"NORMAL":17,
						"TEXCOORD_0":18
					},
					"indices":19,
					"material":0
				}
			]
		},
		{
			"name":"Cube.331",
			"primitives":[
				{
					"attributes":{
						"POSITION":20,
						"NORMAL":21,
						"TEXCOORD_0":22
					},
					"indices":23,
					"material":0
				}
			]
		},
		{
			"name":"Plane.008",
			"primitives":[
				{
					"attributes":{
						"POSITION":24,
						"NORMAL":25,
						"TEXCOORD_0":26
					},
					"indices":27,
					"material":2
				}
			]
		},
		{
			"name":"Cube.002",
			"primitives":[
				{
					"attributes":{
						"POSITION":28,
						"NORMAL":29,
						"TEXCOORD_0":30
					},
					"indices":31,
					"material":1
				}
			]
		},
		{
			"name":"Cube.003",
			"primitives":[
				{
					"attributes":{
						"POSITION":32,
						"NORMAL":33,
						"TEXCOORD_0":34
					},
					"indices":35,
					"material":1
				}
			]
		},
		{
			"name":"Cube.004",
			"primitives":[
				{
					"attributes":{
						"POSITION":36,
						"NORMAL":37,
						"TEXCOORD_0":38
					},
					"indices":39,
					"material":0
				}
			]
		}
	],
	"textures":[
		{
			"sampler":0,
			"source":0
		},
		{
			"sampler":0,
			"source":1
		},
		{
			"sampler":1,
			"source":2
		}
	],
	"images":[
		{
			"mimeType":"image/png",
			"name":"palette1",
			"uri":"../Textures/palette1.png"
		},
		{
			"mimeType":"image/png",
			"name":"wall4",
			"uri":"../Textures/wall4.png"
		},
		{
			"mimeType":"image/jpeg",
			"name":"material_10",
			"uri":"../Textures/material_10.jpg"
		}
	],
	"accessors":[
		{
			"bufferView":0,
			"componentType":5126,
			"count":42,
			"max":[
				113.00004577636719,
				378.62652587890625,
				1.5598314348608255e-05
			],
			"min":[
				-307.905517578125,
				-13.000067710876465,
				-14.52469253540039
			],
			"type":"VEC3"
		},
		{
			"bufferView":1,
			"componentType":5126,
			"count":42,
			"type":"VEC3"
		},
		{
			"bufferView":2,
			"componentType":5126,
			"count":42,
			"type":"VEC2"
		},
		{
			"bufferView":3,
			"componentType":5123,
			"count":78,
			"type":"SCALAR"
		},
		{
			"bufferView":4,
			"componentType":5126,
			"count":66,
			"max":[
				113.00004577636719,
				378.62652587890625,
				1.5598314348608255e-05
			],
			"min":[
				-307.905517578125,
				-13.000067710876465,
				-14.52469253540039
			],
			"type":"VEC3"
		},
		{
			"bufferView":5,
			"componentType":5126,
			"count":66,
			"type":"VEC3"
		},
		{
			"bufferView":6,
			"componentType":5126,
			"count":66,
			"type":"VEC2"
		},
		{
			"bufferView":7,
			"componentType":5123,
			"count":114,
			"type":"SCALAR"
		},
		{
			"bufferView":8,
			"componentType":5126,
			"count":38,
			"max":[
				110.00000762939453,
				87.33670043945312,
				2.9802322387695312e-06
			],
			"min":[
				-289.8370666503906,
				-10.000067710876465,
				-300
			],
			"type":"VEC3"
		},
		{
			"bufferView":9,
			"componentType":5126,
			"count":38,
			"type":"VEC3"
		},
		{
			"bufferView":10,
			"componentType":5126,
			"count":38,
			"type":"VEC2"
		},
		{
			"bufferView":11,
			"componentType":5123,
			"count":60,
			"type":"SCALAR"
		},
		{
			"bufferView":12,
			"componentType":5126,
			"count":48,
			"max":[
				100.0000228881836,
				10.00000286102295,
				0
			],
			"min":[
				-192.78822326660156,
				-10.000049591064453,
				-300
			],
			"type":"VEC3"
		},
		{
			"bufferView":13,
			"componentType":5126,
			"count":48,
			"type":"VEC3"
		},
		{
			"bufferView":14,
			"componentType":5126,
			"count":48,
			"type":"VEC2"
		},
		{
			"bufferView":15,
			"componentType":5123,
			"count":96,
			"type":"SCALAR"
		},
		{
			"bufferView":16,
			"componentType":5126,
			"count":32,
			"max":[
				55.32801055908203,
				3.1196959018707275,
				-85.61328887939453
			],
			"min":[
				-55.32786178588867,
				-3.119666576385498,
				-245.06097412109375
			],
			"type":"VEC3"
		},
		{
			"bufferView":17,
			"componentType":5126,
			"count":32,
			"type":"VEC3"
		},
		{
			"bufferView":18,
			"componentType":5126,
			"count":32,
			"type":"VEC2"
		},
		{
			"bufferView":19,
			"componentType":5123,
			"count":48,
			"type":"SCALAR"
		},
		{
			"bufferView":20,
			"componentType":5126,
			"count":92,
			"max":[
				58.50590515136719,
				13.846273422241211,
				-83.9817886352539
			],
			"min":[
				-58.505897521972656,
				-13.846264839172363,
				-246.9859161376953
			],
			"type":"VEC3"
		},
		{
			"bufferView":21,
			"componentType":5126,
			"count":92,
			"type":"VEC3"
		},
		{
			"bufferView":22,
			"componentType":5126,
			"count":92,
			"type":"VEC2"
		},
		{
			"bufferView":23,
			"componentType":5123,
			"count":192,
			"type":"SCALAR"
		},
		{
			"bufferView":24,
			"componentType":5126,
			"count":4,
			"max":[
				-0.7463103532791138,
				0,
				1
			],
			"min":[
				-1.5589275360107422,
				0,
				0.2254926860332489
			],
			"type":"VEC3"
		},
		{
			"bufferView":25,
			"componentType":5126,
			"count":4,
			"type":"VEC3"
		},
		{
			"bufferView":26,
			"componentType":5126,
			"count":4,
			"type":"VEC2"
		},
		{
			"bufferView":27,
			"componentType":5123,
			"count":6,
			"type":"SCALAR"
		},
		{
			"bufferView":28,
			"componentType":5126,
			"count":4,
			"max":[
				222.838623046875,
				10,
				0
			],
			"min":[
				-160.96343994140625,
				10,
				-300
			],
			"type":"VEC3"
		},
		{
			"bufferView":29,
			"componentType":5126,
			"count":4,
			"type":"VEC3"
		},
		{
			"bufferView":30,
			"componentType":5126,
			"count":4,
			"type":"VEC2"
		},
		{
			"bufferView":31,
			"componentType":5123,
			"count":6,
			"type":"SCALAR"
		},
		{
			"bufferView":32,
			"componentType":5126,
			"count":12,
			"max":[
				161.99664306640625,
				-9.999995231628418,
				3.5723239145447894e-13
			],
			"min":[
				-207.48822021484375,
				-10.000007629394531,
				-300
			],
			"type":"VEC3"
		},
		{
			"bufferView":33,
			"componentType":5126,
			"count":12,
			"type":"VEC3"
		},
		{
			"bufferView":34,
			"componentType":5126,
			"count":12,
			"type":"VEC2"
		},
		{
			"bufferView":35,
			"componentType":5123,
			"count":30,
			"type":"SCALAR"
		},
		{
			"bufferView":36,
			"componentType":5126,
			"count":176,
			"max":[
				60.47092056274414,
				13.846269607543945,
				0
			],
			"min":[
				-60.470909118652344,
				-13.846269607543945,
				-213.92030334472656
			],
			"type":"VEC3"
		},
		{
			"bufferView":37,
			"componentType":5126,
			"count":176,
			"type":"VEC3"
		},
		{
			"bufferView":38,
			"componentType":5126,
			"count":176,
			"type":"VEC2"
		},
		{
			"bufferView":39,
			"componentType":5123,
			"count":288,
			"type":"SCALAR"
		}
	],
	"bufferViews":[
		{
			"buffer":0,
			"byteLength":504,
			"byteOffset":0,
			"target":34962
		},
		{
			"buffer":0,
			"byteLength":504,
			"byteOffset":504,
			"target":34962
		},
		{
			"buffer":0,
			"byteLength":336,
			"byteOffset":1008,
			"target":34962
		},
		{
			"buffer":0,
			"byteLength":156,
			"byteOffset":1344,
			"target":34963
		},
		{
			"buffer":0,
			"byteLength":792,
			"byteOffset":1500,
			"target":34962
		},
		{
			"buffer":0,
			"byteLength":792,
			"byteOffset":2292,
			"target":34962
		},
		{
			"buffer":0,
			"byteLength":528,
			"byteOffset":3084,
			"target":34962
		},
		{
			"buffer":0,
			"byteLength":228,
			"byteOffset":3612,
			"target":34963
		},
		{
			"buffer":0,
			"byteLength":456,
			"byteOffset":3840,
			"target":34962
		},
		{
			"buffer":0,
			"byteLength":456,
			"byteOffset":4296,
			"target":34962
		},
		{
			"buffer":0,
			"byteLength":304,
			"byteOffset":4752,
			"target":34962
		},
		{
			"buffer":0,
			"byteLength":120,
			"byteOffset":5056,
			"target":34963
		},
		{
			"buffer":0,
			"byteLength":576,
			"byteOffset":5176,
			"target":34962
		},
		{
			"buffer":0,
			"byteLength":576,
			"byteOffset":5752,
			"target":34962
		},
		{
			"buffer":0,
			"byteLength":384,
			"byteOffset":6328,
			"target":34962
		},
		{
			"buffer":0,
			"byteLength":192,
			"byteOffset":6712,
			"target":34963
		},
		{
			"buffer":0,
			"byteLength":384,
			"byteOffset":6904,
			"target":34962
		},
		{
			"buffer":0,
			"byteLength":384,
			"byteOffset":7288,
			"target":34962
		},
		{
			"buffer":0,
			"byteLength":256,
			"byteOffset":7672,
			"target":34962
		},
		{
			"buffer":0,
			"byteLength":96,
			"byteOffset":7928,
			"target":34963
		},
		{
			"buffer":0,
			"byteLength":1104,
			"byteOffset":8024,
			"target":34962
		},
		{
			"buffer":0,
			"byteLength":1104,
			"byteOffset":9128,
			"target":34962
		},
		{
			"buffer":0,
			"byteLength":736,
			"byteOffset":10232,
			"target":34962
		},
		{
			"buffer":0,
			"byteLength":384,
			"byteOffset":10968,
			"target":34963
		},
		{
			"buffer":0,
			"byteLength":48,
			"byteOffset":11352,
			"target":34962
		},
		{
			"buffer":0,
			"byteLength":48,
			"byteOffset":11400,
			"target":34962
		},
		{
			"buffer":0,
			"byteLength":32,
			"byteOffset":11448,
			"target":34962
		},
		{
			"buffer":0,
			"byteLength":12,
			"byteOffset":11480,
			"target":34963
		},
		{
			"buffer":0,
			"byteLength":48,
			"byteOffset":11492,
			"target":34962
		},
		{
			"buffer":0,
			"byteLength":48,
			"byteOffset":11540,
			"target":34962
		},
		{
			"buffer":0,
			"byteLength":32,
			"byteOffset":11588,
			"target":34962
		},
		{
			"buffer":0,
			"byteLength":12,
			"byteOffset":11620,
			"target":34963
		},
		{
			"buffer":0,
			"byteLength":144,
			"byteOffset":11632,
			"target":34962
		},
		{
			"buffer":0,
			"byteLength":144,
			"byteOffset":11776,
			"target":34962
		},
		{
			"buffer":0,
			"byteLength":96,
			"byteOffset":11920,
			"target":34962
		},
		{
			"buffer":0,
			"byteLength":60,
			"byteOffset":12016,
			"target":34963
		},
		{
			"buffer":0,
			"byteLength":2112,
			"byteOffset":12076,
			"target":34962
		},
		{
			"buffer":0,
			"byteLength":2112,
			"byteOffset":14188,
			"target":34962
		},
		{
			"buffer":0,
			"byteLength":1408,
			"byteOffset":16300,
			"target":34962
		},
		{
			"buffer":0,
			"byteLength":576,
			"byteOffset":17708,
			"target":34963
		}
	],
	"samplers":[
		{
			"magFilter":9728,
			"minFilter":9984
		},
		{
			"magFilter":9729,
			"minFilter":9987
		}
	],
	"buffers":[
		{
			"byteLength":18284,
			"uri":"laundry.bin"
		}
	]
}
