{
	"asset":{
		"generator":"Khronos glTF Blender I/O v4.5.47",
		"version":"2.0"
	},
	"scene":0,
	"scenes":[
		{
			"name":"Scene",
			"nodes":[
				0,
				1,
				2,
				3
			]
		}
	],
	"nodes":[
		{
			"mesh":0,
			"name":"Washing Product.001",
			"rotation":[
				0.4940049350261688,
				0.5059240460395813,
				-0.5059239864349365,
				0.4940049648284912
			],
			"scale":[
				0.012793273665010929,
				0.012793273665010929,
				0.012793274596333504
			],
			"translation":[
				-7.106301307678223,
				0.9518369436264038,
				3.782430648803711
			]
		},
		{
			"mesh":1,
			"name":"Washing Machine.001",
			"rotation":[
				0.5,
				0.5,
				-0.5,
				0.5000000596046448
			],
			"scale":[
				0.009999999776482582,
				0.009999999776482582,
				0.009999999776482582
			],
			"translation":[
				-6.868488788604736,
				0,
				3.543687343597412
			]
		},
		{
			"mesh":2,
			"name":"Washing Machine Ac.001",
			"rotation":[
				0.5,
				0.5,
				-0.5,
				0.5000000596046448
			],
			"scale":[
				0.009999999776482582,
				0.009999999776482582,
				0.009999999776482582
			],
			"translation":[
				-6.506110191345215,
				0.48783203959465027,
				3.2338013648986816
			]
		},
		{
			"mesh":3,
			"name":"Simple Cereal Box.002",
			"rotation":[
				0.4999992847442627,
				0.5000007152557373,
				-0.5000007152557373,
				0.49999934434890747
			],
			"scale":[
				0.009999999776482582,
				0.013575857505202293,
				0.007650044281035662
			],
			"translation":[
				-7.14223051071167,
				0.9358664751052856,
				3.2696475982666016
			]
		}
	],
	"materials":[
		{
			"doubleSided":true,
			"name":"Washing Product",
			"pbrMetallicRoughness":{
				"baseColorTexture":{
					"index":0
				},
				"metallicFactor":0,
				"roughnessFactor":0.5
			}
		},
		{
			"doubleSided":true,
			"name":"Palette",
			"pbrMetallicRoughness":{
				"baseColorTexture":{
					"index":1
				},
				"metallicFactor":0,
				"roughnessFactor":0.5
			}
		},
		{
			"doubleSided":true,
			"name":"Cereal Box",
			"pbrMetallicRoughness":{
				"baseColorTexture":{
					"index":2
				},
				"metallicFactor":0,
				"roughnessFactor":0.5
			}
		}
	],
	"meshes":[
		{
			"name":"Cube.439",
			"primitives":[
				{
					"attributes":{
						"POSITION":0,
						"NORMAL":1,
						"TEXCOORD_0":2
					},
					"indices":3,
					"material":0
				}
			]
		},
		{
			"name":"Cube.447",
			"primitives":[
				{
					"attributes":{
						"POSITION":4,
						"NORMAL":5,
						"TEXCOORD_0":6
					},
					"indices":7,
					"material":1
				}
			]
		},
		{
			"name":"Cube.458",
			"primitives":[
				{
					"attributes":{
						"POSITION":8,
						"NORMAL":9,
						"TEXCOORD_0":10
					},
					"indices":11,
					"material":1
				}
			]
		},
		{
			"name":"Cube.525",
			"primitives":[
				{
					"attributes":{
						"POSITION":12,
						"NORMAL":13,
						"TEXCOORD_0":14
					},
					"indices":15,
					"material":2
				}
			]
		}
	],
	"textures":[
		{
			"sampler":0,
			"source":0
		},
		{
			"sampler":1,
			"source":1
		},
		{
			"sampler":0,
			"source":2
		}
	],
	"images":[
		{
			"mimeType":"image/png",
			"name":"Washing Product",
			"uri":"../Textures/Washing%20Product.png"
		},
		{
			"mimeType":"image/png",
			"name":"palette1",
			"uri":"../Textures/palette1.png"
		},
		{
			"mimeType":"image/png",
			"name":"cereal box",
			"uri":"../Textures/cereal%20box.png"
		}
	],
	"accessors":[
		{
			"bufferView":0,
			"componentType":5126,
			"count":337,
			"max":[
				11.0958890914917,
				3.657080888748169,
				-0.21791858971118927
			],
			"min":[
				-6.8990044593811035,
				-3.4798755645751953,
				-23.57266616821289
			],
			"type":"VEC3"
		},
		{
			"bufferView":1,
			"componentType":5126,
			"count":337,
			"type":"VEC3"
		},
		{
			"bufferView":2,
			"componentType":5126,
			"count":337,
			"type":"VEC2"
		},
		{
			"bufferView":3,
			"componentType":5123,
			"count":1026,
			"type":"SCALAR"
		},
		{
			"bufferView":4,
			"componentType":5126,
			"count":304,
			"max":[
				43.177772521972656,
				38.424678802490234,
				0
			],
			"min":[
				-43.177772521972656,
				-38.567047119140625,
				-95.23160552978516
			],
			"type":"VEC3"
		},
		{
			"bufferView":5,
			"componentType":5126,
			"count":304,
			"type":"VEC3"
		},
		{
			"bufferView":6,
			"componentType":5126,
			"count":304,
			"type":"VEC2"
		},
		{
			"bufferView":7,
			"componentType":5123,
			"count":564,
			"type":"SCALAR"
		},
		{
			"bufferView":8,
			"componentType":5126,
			"count":128,
			"max":[
				0.5969774127006531,
				4.675889492034912,
				32.37404251098633
			],
			"min":[
				-64.15110778808594,
				-0.17797090113162994,
				-32.37403869628906
			],
			"type":"VEC3"
		},
		{
			"bufferView":9,
			"componentType":5126,
			"count":128,
			"type":"VEC3"
		},
		{
			"bufferView":10,
			"componentType":5126,
			"count":128,
			"type":"VEC2"
		},
		{
			"bufferView":11,
			"componentType":5123,
			"count":384,
			"type":"SCALAR"
		},
		{
			"bufferView":12,
			"componentType":5126,
			"count":24,
			"max":[
				9.605634689331055,
				4.276505947113037,
				-0.5218014121055603
			],
			"min":[
				-9.605634689331055,
				-2.4552419185638428,
				-29.267221450805664
			],
			"type":"VEC3"
		},
		{
			"bufferView":13,
			"componentType":5126,
			"count":24,
			"type":"VEC3"
		},
		{
			"bufferView":14,
			"componentType":5126,
			"count":24,
			"type":"VEC2"
		},
		{
			"bufferView":15,
			"componentType":5123,
			"count":36,
			"type":"SCALAR"
		}
	],
	"bufferViews":[
		{
			"buffer":0,
			"byteLength":4044,
			"byteOffset":0,
			"target":34962
		},
		{
			"buffer":0,
			"byteLength":4044,
			"byteOffset":4044,
			"target":34962
		},
		{
			"buffer":0,
			"byteLength":2696,
			"byteOffset":8088,
			"target":34962
		},
		{
			"buffer":0,
			"byteLength":2052,
			"byteOffset":10784,
			"target":34963
		},
		{
			"buffer":0,
			"byteLength":3648,
			"byteOffset":12836,
			"target":34962
		},
		{
			"buffer":0,
			"byteLength":3648,
			"byteOffset":16484,
			"target":34962
		},
		{
			"buffer":0,
			"byteLength":2432,
			"byteOffset":20132,
			"target":34962
		},
		{
			"buffer":0,
			"byteLength":1128,
			"byteOffset":22564,
			"target":34963
		},
		{
			"buffer":0,
			"byteLength":1536,
			"byteOffset":23692,
			"target":34962
		},
		{
			"buffer":0,
			"byteLength":1536,
			"byteOffset":25228,
			"target":34962
		},
		{
			"buffer":0,
			"byteLength":1024,
			"byteOffset":26764,
			"target":34962
		},
		{
			"buffer":0,
			"byteLength":768,
			"byteOffset":27788,
			"target":34963
		},
		{
			"buffer":0,
			"byteLength":288,
			"byteOffset":28556,
			"target":34962
		},
		{
			"buffer":0,
			"byteLength":288,
			"byteOffset":28844,
			"target":34962
		},
		{
			"buffer":0,
			"byteLength":192,
			"byteOffset":29132,
			"target":34962
		},
		{
			"buffer":0,
			"byteLength":72,
			"byteOffset":29324,
			"target":34963
		}
	],
	"samplers":[
		{
			"magFilter":9729,
			"minFilter":9987
		},
		{
			"magFilter":9728,
			"minFilter":9984
		}
	],
	"buffers":[
		{
			"byteLength":29396,
			"uri":"washing_machine.bin"
		}
	]
}
