{
	"asset":{
		"generator":"Khronos glTF Blender I/O v4.5.47",
		"version":"2.0"
	},
	"scene":0,
	"scenes":[
		{
			"name":"Scene",
			"nodes":[
				0
			]
		}
	],
	"nodes":[
		{
			"mesh":0,
			"name":"soda-can-crushed",
			"scale":[
				0.35895365476608276,
				0.35895365476608276,
				0.35895365476608276
			],
			"translation":[
				-6.792189121246338,
				0.7798727750778198,
				-1.368897557258606
			]
		}
	],
	"materials":[
		{
			"doubleSided":true,
			"name":"colormap.172",
			"pbrMetallicRoughness":{
				"baseColorTexture":{
					"index":0
				},
				"metallicFactor":0
			}
		}
	],
	"meshes":[
		{
			"name":"soda-can-crushed",
			"primitives":[
				{
					"attributes":{
						"POSITION":0,
						"NORMAL":1,
						"TEXCOORD_0":2
					},
					"indices":3,
					"material":0
				}
			]
		}
	],
	"textures":[
		{
			"sampler":0,
			"source":0
		}
	],
	"images":[
		{
			"mimeType":"image/png",
			"name":"colormap",
			"uri":"../Textures/colormap.png"
		}
	],
	"accessors":[
		{
			"bufferView":0,
			"componentType":5126,
			"count":187,
			"max":[
				0.12355200201272964,
				0.18059700727462769,
				0.12355200201272964
			],
			"min":[
				-0.12355200201272964,
				0,
				-0.12355200201272964
			],
			"type":"VEC3"
		},
		{
			"bufferView":1,
			"componentType":5126,
			"count":187,
			"type":"VEC3"
		},
		{
			"bufferView":2,
			"componentType":5126,
			"count":187,
			"type":"VEC2"
		},
		{
			"bufferView":3,
			"componentType":5123,
			"count":636,
			"type":"SCALAR"
		}
	],
	"bufferViews":[
		{
			"buffer":0,
			"byteLength":2244,
			"byteOffset":0,
			"target":34962
		},
		{
			"buffer":0,
			"byteLength":2244,
			"byteOffset":2244,
			"target":34962
		},
		{
			"buffer":0,
			"byteLength":1496,
			"byteOffset":4488,
			"target":34962
		},
		{
			"buffer":0,
			"byteLength":1272,
			"byteOffset":5984,
			"target":34963
		}
	],
	"samplers":[
		{
			"magFilter":9728,
			"minFilter":9984
		}
	],
	"buffers":[
		{
			"byteLength":7256,
			"uri":"crushed_can.bin"
		}
	]
}
