{
	"asset":{
		"generator":"Khronos glTF Blender I/O v4.5.47",
		"version":"2.0"
	},
	"scene":0,
	"scenes":[
		{
			"name":"Scene",
			"nodes":[
				0
			]
		}
	],
	"nodes":[
		{
			"mesh":0,
			"name":"Knife (Big).001",
			"rotation":[
				-0.23283405601978302,
				-0.5297605991363525,
				0.14939461648464203,
				0.801762580871582
			],
			"scale":[
				0.009999999776482582,
				0.009999999776482582,
				0.009999999776482582
			],
			"translation":[
				-4.756606578826904,
				1.0773274898529053,
				0.411336213350296
			]
		}
	],
	"materials":[
		{
			"doubleSided":true,
			"name":"Palette",
			"pbrMetallicRoughness":{
				"baseColorTexture":{
					"index":0
				},
				"metallicFactor":0,
				"roughnessFactor":0.5
			}
		}
	],
	"meshes":[
		{
			"name":"Cube.383",
			"primitives":[
				{
					"attributes":{
						"POSITION":0,
						"NORMAL":1,
						"TEXCOORD_0":2
					},
					"indices":3,
					"material":0
				}
			]
		}
	],
	"textures":[
		{
			"sampler":0,
			"source":0
		}
	],
	"images":[
		{
			"mimeType":"image/png",
			"name":"palette1",
			"uri":"../Textures/palette1.png"
		}
	],
	"accessors":[
		{
			"bufferView":0,
			"componentType":5126,
			"count":226,
			"max":[
				1.538955569267273,
				11.196223258972168,
				0.6410703063011169
			],
			"min":[
				-2.6293582916259766,
				-23.802589416503906,
				-0.6410740613937378
			],
			"type":"VEC3"
		},
		{
			"bufferView":1,
			"componentType":5126,
			"count":226,
			"type":"VEC3"
		},
		{
			"bufferView":2,
			"componentType":5126,
			"count":226,
			"type":"VEC2"
		},
		{
			"bufferView":3,
			"componentType":5123,
			"count":408,
			"type":"SCALAR"
		}
	],
	"bufferViews":[
		{
			"buffer":0,
			"byteLength":2712,
			"byteOffset":0,
			"target":34962
		},
		{
			"buffer":0,
			"byteLength":2712,
			"byteOffset":2712,
			"target":34962
		},
		{
			"buffer":0,
			"byteLength":1808,
			"byteOffset":5424,
			"target":34962
		},
		{
			"buffer":0,
			"byteLength":816,
			"byteOffset":7232,
			"target":34963
		}
	],
	"samplers":[
		{
			"magFilter":9728,
			"minFilter":9984
		}
	],
	"buffers":[
		{
			"byteLength":8048,
			"uri":"knife.bin"
		}
	]
}
