{
	"asset":{
		"generator":"Khronos glTF Blender I/O v4.5.47",
		"version":"2.0"
	},
	"scene":0,
	"scenes":[
		{
			"name":"Scene",
			"nodes":[
				0
			]
		}
	],
	"nodes":[
		{
			"mesh":0,
			"name":"plate-sauerkraut",
			"scale":[
				0.2964312434196472,
				0.2964312434196472,
				0.2964312434196472
			],
			"translation":[
				-6.8313117027282715,
				0.7809839248657227,
				-1.9383779764175415
			]
		}
	],
	"materials":[
		{
			"doubleSided":true,
			"name":"colormap.147",
			"pbrMetallicRoughness":{
				"baseColorTexture":{
					"index":0
				},
				"metallicFactor":0
			}
		}
	],
	"meshes":[
		{
			"name":"plate-sauerkraut",
			"primitives":[
				{
					"attributes":{
						"POSITION":0,
						"NORMAL":1,
						"TEXCOORD_0":2
					},
					"indices":3,
					"material":0
				}
			]
		}
	],
	"textures":[
		{
			"sampler":0,
			"source":0
		}
	],
	"images":[
		{
			"mimeType":"image/png",
			"name":"colormap",
			"uri":"../Textures/colormap.png"
		}
	],
	"accessors":[
		{
			"bufferView":0,
			"componentType":5126,
			"count":215,
			"max":[
				0.4458869695663452,
				0.09307084232568741,
				0.4458869695663452
			],
			"min":[
				-0.4458869695663452,
				0,
				-0.4458869695663452
			],
			"type":"VEC3"
		},
		{
			"bufferView":1,
			"componentType":5126,
			"count":215,
			"type":"VEC3"
		},
		{
			"bufferView":2,
			"componentType":5126,
			"count":215,
			"type":"VEC2"
		},
		{
			"bufferView":3,
			"componentType":5123,
			"count":672,
			"type":"SCALAR"
		}
	],
	"bufferViews":[
		{
			"buffer":0,
			"byteLength":2580,
			"byteOffset":0,
			"target":34962
		},
		{
			"buffer":0,
			"byteLength":2580,
			"byteOffset":2580,
			"target":34962
		},
		{
			"buffer":0,
			"byteLength":1720,
			"byteOffset":5160,
			"target":34962
		},
		{
			"buffer":0,
			"byteLength":1344,
			"byteOffset":6880,
			"target":34963
		}
	],
	"samplers":[
		{
			"magFilter":9728,
			"minFilter":9984
		}
	],
	"buffers":[
		{
			"byteLength":8224,
			"uri":"leftovers.bin"
		}
	]
}
