{
	"asset":{
		"generator":"Khronos glTF Blender I/O v4.5.47",
		"version":"2.0"
	},
	"scene":0,
	"scenes":[
		{
			"name":"Scene",
			"nodes":[
				1
			]
		}
	],
	"nodes":[
		{
			"mesh":0,
			"name":"Door Handle 1.008",
			"translation":[
				-93.61573028564453,
				7.667850971221924,
				-108.13130187988281
			]
		},
		{
			"children":[
				0
			],
			"mesh":1,
			"name":"Door 1.008",
			"rotation":[
				0.4999997615814209,
				0.5000002384185791,
				-0.5000001788139343,
				0.4999998211860657
			],
			"scale":[
				0.009999999776482582,
				0.009999999776482582,
				0.009999999776482582
			],
			"translation":[
				4.146182060241699,
				0.009686559438705444,
				-0.13683652877807617
			]
		}
	],
	"materials":[
		{
			"doubleSided":true,
			"name":"Palette",
			"pbrMetallicRoughness":{
				"baseColorTexture":{
					"index":0
				},
				"metallicFactor":0,
				"roughnessFactor":0.5
			}
		}
	],
	"meshes":[
		{
			"name":"Cube.024",
			"primitives":[
				{
					"attributes":{
						"POSITION":0,
						"NORMAL":1,
						"TEXCOORD_0":2
					},
					"indices":3,
					"material":0
				}
			]
		},
		{
			"name":"Cube.023",
			"primitives":[
				{
					"attributes":{
						"POSITION":4,
						"NORMAL":5,
						"TEXCOORD_0":6
					},
					"indices":7,
					"material":0
				}
			]
		}
	],
	"textures":[
		{
			"sampler":0,
			"source":0
		}
	],
	"images":[
		{
			"mimeType":"image/png",
			"name":"palette1",
			"uri":"../Textures/palette1.png"
		}
	],
	"accessors":[
		{
			"bufferView":0,
			"componentType":5126,
			"count":100,
			"max":[
				21.000446319580078,
				6.427109241485596,
				2.3149609565734863
			],
			"min":[
				-0.6584569811820984,
				-21.762741088867188,
				-2.3149518966674805
			],
			"type":"VEC3"
		},
		{
			"bufferView":1,
			"componentType":5126,
			"count":100,
			"type":"VEC3"
		},
		{
			"bufferView":2,
			"componentType":5126,
			"count":100,
			"type":"VEC2"
		},
		{
			"bufferView":3,
			"componentType":5123,
			"count":204,
			"type":"SCALAR"
		},
		{
			"bufferView":4,
			"componentType":5126,
			"count":224,
			"max":[
				0,
				4.353878974914551,
				0.45395493507385254
			],
			"min":[
				-101.45189666748047,
				-4.353878974914551,
				-202.03408813476562
			],
			"type":"VEC3"
		},
		{
			"bufferView":5,
			"componentType":5126,
			"count":224,
			"type":"VEC3"
		},
		{
			"bufferView":6,
			"componentType":5126,
			"count":224,
			"type":"VEC2"
		},
		{
			"bufferView":7,
			"componentType":5123,
			"count":444,
			"type":"SCALAR"
		}
	],
	"bufferViews":[
		{
			"buffer":0,
			"byteLength":1200,
			"byteOffset":0,
			"target":34962
		},
		{
			"buffer":0,
			"byteLength":1200,
			"byteOffset":1200,
			"target":34962
		},
		{
			"buffer":0,
			"byteLength":800,
			"byteOffset":2400,
			"target":34962
		},
		{
			"buffer":0,
			"byteLength":408,
			"byteOffset":3200,
			"target":34963
		},
		{
			"buffer":0,
			"byteLength":2688,
			"byteOffset":3608,
			"target":34962
		},
		{
			"buffer":0,
			"byteLength":2688,
			"byteOffset":6296,
			"target":34962
		},
		{
			"buffer":0,
			"byteLength":1792,
			"byteOffset":8984,
			"target":34962
		},
		{
			"buffer":0,
			"byteLength":888,
			"byteOffset":10776,
			"target":34963
		}
	],
	"samplers":[
		{
			"magFilter":9728,
			"minFilter":9984
		}
	],
	"buffers":[
		{
			"byteLength":11664,
			"uri":"main_basement_entry_door.bin"
		}
	]
}
