{
	"asset":{
		"generator":"Khronos glTF Blender I/O v4.5.48",
		"version":"2.0"
	},
	"scene":0,
	"scenes":[
		{
			"name":"Scene",
			"nodes":[
				0
			]
		}
	],
	"nodes":[
		{
			"mesh":0,
			"name":"Vacuum",
			"rotation":[
				0,
				-1,
				0,
				1.6292068494294654e-07
			],
			"scale":[
				0.299919068813324,
				0.3683476448059082,
				0.299919068813324
			],
			"translation":[
				0.8895149827003479,
				0,
				-5.259927272796631
			]
		}
	],
	"materials":[
		{
			"doubleSided":true,
			"name":"Roomba1",
			"pbrMetallicRoughness":{
				"baseColorFactor":[
					0.024746112525463104,
					0.024746112525463104,
					0.024746112525463104,
					1
				],
				"metallicFactor":0,
				"roughnessFactor":0.5
			}
		},
		{
			"doubleSided":true,
			"name":"Roomba2",
			"pbrMetallicRoughness":{
				"baseColorFactor":[
					0,
					0,
					0,
					1
				],
				"metallicFactor":0,
				"roughnessFactor":0.2460317313671112
			}
		},
		{
			"doubleSided":true,
			"name":"Roomba3",
			"pbrMetallicRoughness":{
				"baseColorFactor":[
					0.14099131524562836,
					0.14099131524562836,
					0.14099131524562836,
					1
				],
				"metallicFactor":0,
				"roughnessFactor":0.5
			}
		}
	],
	"meshes":[
		{
			"name":"Circle.003",
			"primitives":[
				{
					"attributes":{
						"POSITION":0,
						"NORMAL":1,
						"TEXCOORD_0":2
					},
					"indices":3,
					"material":0
				},
				{
					"attributes":{
						"POSITION":4,
						"NORMAL":5,
						"TEXCOORD_0":6
					},
					"indices":7,
					"material":1
				},
				{
					"attributes":{
						"POSITION":8,
						"NORMAL":9,
						"TEXCOORD_0":10
					},
					"indices":11,
					"material":2
				}
			]
		}
	],
	"accessors":[
		{
			"bufferView":0,
			"componentType":5126,
			"count":240,
			"max":[
				0.9926502108573914,
				0.31557634472846985,
				1
			],
			"min":[
				-0.9926502108573914,
				-0.0002447832957841456,
				-0.9036542773246765
			],
			"type":"VEC3"
		},
		{
			"bufferView":1,
			"componentType":5126,
			"count":240,
			"type":"VEC3"
		},
		{
			"bufferView":2,
			"componentType":5126,
			"count":240,
			"type":"VEC2"
		},
		{
			"bufferView":3,
			"componentType":5123,
			"count":744,
			"type":"SCALAR"
		},
		{
			"bufferView":4,
			"componentType":5126,
			"count":116,
			"max":[
				0.9916396737098694,
				0.3831305503845215,
				0.1344379037618637
			],
			"min":[
				-0.9916396737098694,
				0.048453766852617264,
				-1
			],
			"type":"VEC3"
		},
		{
			"bufferView":5,
			"componentType":5126,
			"count":116,
			"type":"VEC3"
		},
		{
			"bufferView":6,
			"componentType":5126,
			"count":116,
			"type":"VEC2"
		},
		{
			"bufferView":7,
			"componentType":5123,
			"count":336,
			"type":"SCALAR"
		},
		{
			"bufferView":8,
			"componentType":5126,
			"count":372,
			"max":[
				1,
				0.40567001700401306,
				1
			],
			"min":[
				-1,
				-0.0002447832957841456,
				-1
			],
			"type":"VEC3"
		},
		{
			"bufferView":9,
			"componentType":5126,
			"count":372,
			"type":"VEC3"
		},
		{
			"bufferView":10,
			"componentType":5126,
			"count":372,
			"type":"VEC2"
		},
		{
			"bufferView":11,
			"componentType":5123,
			"count":1068,
			"type":"SCALAR"
		}
	],
	"bufferViews":[
		{
			"buffer":0,
			"byteLength":2880,
			"byteOffset":0,
			"target":34962
		},
		{
			"buffer":0,
			"byteLength":2880,
			"byteOffset":2880,
			"target":34962
		},
		{
			"buffer":0,
			"byteLength":1920,
			"byteOffset":5760,
			"target":34962
		},
		{
			"buffer":0,
			"byteLength":1488,
			"byteOffset":7680,
			"target":34963
		},
		{
			"buffer":0,
			"byteLength":1392,
			"byteOffset":9168,
			"target":34962
		},
		{
			"buffer":0,
			"byteLength":1392,
			"byteOffset":10560,
			"target":34962
		},
		{
			"buffer":0,
			"byteLength":928,
			"byteOffset":11952,
			"target":34962
		},
		{
			"buffer":0,
			"byteLength":672,
			"byteOffset":12880,
			"target":34963
		},
		{
			"buffer":0,
			"byteLength":4464,
			"byteOffset":13552,
			"target":34962
		},
		{
			"buffer":0,
			"byteLength":4464,
			"byteOffset":18016,
			"target":34962
		},
		{
			"buffer":0,
			"byteLength":2976,
			"byteOffset":22480,
			"target":34962
		},
		{
			"buffer":0,
			"byteLength":2136,
			"byteOffset":25456,
			"target":34963
		}
	],
	"buffers":[
		{
			"byteLength":27592,
			"uri":"vacuum.bin"
		}
	]
}
