{
	"asset":{
		"generator":"Khronos glTF Blender I/O v4.5.48",
		"version":"2.0"
	},
	"extensionsUsed":[
		"KHR_texture_transform"
	],
	"extensionsRequired":[
		"KHR_texture_transform"
	],
	"scene":0,
	"scenes":[
		{
			"name":"Scene",
			"nodes":[
				0,
				1,
				2,
				3
			]
		}
	],
	"nodes":[
		{
			"mesh":0,
			"name":"Wall Standard (Door).013",
			"rotation":[
				0.5,
				0.5,
				-0.5,
				0.5000000596046448
			],
			"scale":[
				0.009999999776482582,
				0.009999999776482582,
				0.009999999776482582
			],
			"translation":[
				-3.6113500595092773,
				0,
				2.721876859664917
			]
		},
		{
			"mesh":1,
			"name":"Plane.011",
			"scale":[
				4.852503299713135,
				4.852503299713135,
				4.852503299713135
			]
		},
		{
			"mesh":2,
			"name":"Plane.010",
			"scale":[
				4.852503299713135,
				4.852503299713135,
				4.852503299713135
			]
		},
		{
			"mesh":3,
			"name":"Wall Standard Border.006",
			"rotation":[
				0.7071068286895752,
				0,
				0,
				0.7071068286895752
			],
			"scale":[
				0.003931490238755941,
				0.003931490238755941,
				0.003931490238755941
			],
			"translation":[
				-2.566652297973633,
				0,
				-0.5427049994468689
			]
		}
	],
	"materials":[
		{
			"doubleSided":true,
			"name":"Wooden Wall",
			"pbrMetallicRoughness":{
				"baseColorTexture":{
					"index":0
				},
				"metallicFactor":0,
				"roughnessFactor":0.5
			}
		},
		{
			"doubleSided":true,
			"name":"Normal Tiles",
			"pbrMetallicRoughness":{
				"baseColorTexture":{
					"extensions":{
						"KHR_texture_transform":{
							"offset":[
								0,
								-1
							],
							"scale":[
								4.300000190734863,
								3.5999999046325684
							]
						}
					},
					"index":1
				},
				"metallicFactor":0,
				"roughnessFactor":0.5
			}
		},
		{
			"doubleSided":true,
			"name":"Wood TIles",
			"pbrMetallicRoughness":{
				"baseColorTexture":{
					"extensions":{
						"KHR_texture_transform":{
							"offset":[
								6.300000190734857,
								0.9999997246182346
							],
							"rotation":1.5707963705062866,
							"scale":[
								-11.399999618530273,
								-6.300000190734863
							]
						}
					},
					"index":2
				},
				"metallicFactor":0,
				"roughnessFactor":0.5
			}
		},
		{
			"doubleSided":true,
			"name":"Palette",
			"pbrMetallicRoughness":{
				"baseColorTexture":{
					"index":3
				},
				"metallicFactor":0,
				"roughnessFactor":0.5
			}
		}
	],
	"meshes":[
		{
			"name":"Cube.001",
			"primitives":[
				{
					"attributes":{
						"POSITION":0,
						"NORMAL":1,
						"TEXCOORD_0":2
					},
					"indices":3,
					"material":0
				}
			]
		},
		{
			"name":"Plane.012",
			"primitives":[
				{
					"attributes":{
						"POSITION":4,
						"NORMAL":5,
						"TEXCOORD_0":6
					},
					"indices":7,
					"material":1
				}
			]
		},
		{
			"name":"Plane.014",
			"primitives":[
				{
					"attributes":{
						"POSITION":8,
						"NORMAL":9,
						"TEXCOORD_0":10
					},
					"indices":11,
					"material":2
				}
			]
		},
		{
			"name":"Cube.010",
			"primitives":[
				{
					"attributes":{
						"POSITION":12,
						"NORMAL":13,
						"TEXCOORD_0":14
					},
					"indices":15,
					"material":3
				}
			]
		}
	],
	"textures":[
		{
			"sampler":0,
			"source":0
		},
		{
			"sampler":1,
			"source":1
		},
		{
			"sampler":1,
			"source":2
		},
		{
			"sampler":0,
			"source":3
		}
	],
	"images":[
		{
			"mimeType":"image/png",
			"name":"wall4",
			"uri":"../Textures/wall4.png"
		},
		{
			"mimeType":"image/jpeg",
			"name":"patio_tiles_diff_512",
			"uri":"../Textures/patio_tiles_diff_512.jpg"
		},
		{
			"mimeType":"image/jpeg",
			"name":"wood_floor_diff_512",
			"uri":"../Textures/wood_floor_diff_512.jpg"
		},
		{
			"mimeType":"image/png",
			"name":"palette1",
			"uri":"../Textures/palette1.png"
		}
	],
	"accessors":[
		{
			"bufferView":0,
			"componentType":5126,
			"count":65,
			"max":[
				431.642822265625,
				10.000020027160645,
				1.2420795728745881e-12
			],
			"min":[
				-207.48822021484375,
				-10.000007629394531,
				-300
			],
			"type":"VEC3"
		},
		{
			"bufferView":1,
			"componentType":5126,
			"count":65,
			"type":"VEC3"
		},
		{
			"bufferView":2,
			"componentType":5126,
			"count":65,
			"type":"VEC2"
		},
		{
			"bufferView":3,
			"componentType":5123,
			"count":138,
			"type":"SCALAR"
		},
		{
			"bufferView":4,
			"componentType":5126,
			"count":8,
			"max":[
				0.5316228866577148,
				0,
				0.2254927158355713
			],
			"min":[
				-1.5589275360107422,
				0,
				-1.1917659044265747
			],
			"type":"VEC3"
		},
		{
			"bufferView":5,
			"componentType":5126,
			"count":8,
			"type":"VEC3"
		},
		{
			"bufferView":6,
			"componentType":5126,
			"count":8,
			"type":"VEC2"
		},
		{
			"bufferView":7,
			"componentType":5123,
			"count":18,
			"type":"SCALAR"
		},
		{
			"bufferView":8,
			"componentType":5126,
			"count":6,
			"max":[
				-0.2527170777320862,
				0,
				1
			],
			"min":[
				-0.7463103532791138,
				0,
				-0.1161022037267685
			],
			"type":"VEC3"
		},
		{
			"bufferView":9,
			"componentType":5126,
			"count":6,
			"type":"VEC3"
		},
		{
			"bufferView":10,
			"componentType":5126,
			"count":6,
			"type":"VEC2"
		},
		{
			"bufferView":11,
			"componentType":5123,
			"count":12,
			"type":"SCALAR"
		},
		{
			"bufferView":12,
			"componentType":5126,
			"count":24,
			"max":[
				335.97119140625,
				13,
				-3.675751209259033
			],
			"min":[
				-243.00845336914062,
				-13,
				-10.848936080932617
			],
			"type":"VEC3"
		},
		{
			"bufferView":13,
			"componentType":5126,
			"count":24,
			"type":"VEC3"
		},
		{
			"bufferView":14,
			"componentType":5126,
			"count":24,
			"type":"VEC2"
		},
		{
			"bufferView":15,
			"componentType":5123,
			"count":36,
			"type":"SCALAR"
		}
	],
	"bufferViews":[
		{
			"buffer":0,
			"byteLength":780,
			"byteOffset":0,
			"target":34962
		},
		{
			"buffer":0,
			"byteLength":780,
			"byteOffset":780,
			"target":34962
		},
		{
			"buffer":0,
			"byteLength":520,
			"byteOffset":1560,
			"target":34962
		},
		{
			"buffer":0,
			"byteLength":276,
			"byteOffset":2080,
			"target":34963
		},
		{
			"buffer":0,
			"byteLength":96,
			"byteOffset":2356,
			"target":34962
		},
		{
			"buffer":0,
			"byteLength":96,
			"byteOffset":2452,
			"target":34962
		},
		{
			"buffer":0,
			"byteLength":64,
			"byteOffset":2548,
			"target":34962
		},
		{
			"buffer":0,
			"byteLength":36,
			"byteOffset":2612,
			"target":34963
		},
		{
			"buffer":0,
			"byteLength":72,
			"byteOffset":2648,
			"target":34962
		},
		{
			"buffer":0,
			"byteLength":72,
			"byteOffset":2720,
			"target":34962
		},
		{
			"buffer":0,
			"byteLength":48,
			"byteOffset":2792,
			"target":34962
		},
		{
			"buffer":0,
			"byteLength":24,
			"byteOffset":2840,
			"target":34963
		},
		{
			"buffer":0,
			"byteLength":288,
			"byteOffset":2864,
			"target":34962
		},
		{
			"buffer":0,
			"byteLength":288,
			"byteOffset":3152,
			"target":34962
		},
		{
			"buffer":0,
			"byteLength":192,
			"byteOffset":3440,
			"target":34962
		},
		{
			"buffer":0,
			"byteLength":72,
			"byteOffset":3632,
			"target":34963
		}
	],
	"samplers":[
		{
			"magFilter":9728,
			"minFilter":9984
		},
		{
			"magFilter":9729,
			"minFilter":9987
		}
	],
	"buffers":[
		{
			"byteLength":3704,
			"uri":"corridor_back.bin"
		}
	]
}
