{
	"asset":{
		"generator":"Khronos glTF Blender I/O v4.5.47",
		"version":"2.0"
	},
	"extensionsUsed":[
		"KHR_texture_transform"
	],
	"extensionsRequired":[
		"KHR_texture_transform"
	],
	"scene":0,
	"scenes":[
		{
			"name":"Scene",
			"nodes":[
				0,
				1,
				2,
				3,
				4,
				5,
				6,
				7,
				8
			]
		}
	],
	"nodes":[
		{
			"mesh":0,
			"name":"Door Frame 2.010",
			"rotation":[
				0.7071068286895752,
				0,
				0,
				0.7071068286895752
			],
			"scale":[
				0.009999999776482582,
				0.009999999776482582,
				0.009999999776482582
			],
			"translation":[
				3.3342270851135254,
				0,
				-0.5364552736282349
			]
		},
		{
			"mesh":1,
			"name":"Wall Standard (Corner) Border.011",
			"rotation":[
				0.5,
				0.5,
				-0.5,
				0.5000000596046448
			],
			"scale":[
				0.009999999776482582,
				0.009999999776482582,
				0.009999999776482582
			],
			"translation":[
				-1.2079399824142456,
				0,
				2.0740740299224854
			]
		},
		{
			"mesh":2,
			"name":"Door Frame 2.011",
			"rotation":[
				0.5,
				-0.5000000596046448,
				0.5,
				0.5
			],
			"scale":[
				0.009999999776482582,
				0.009999999776482582,
				0.009999999776482582
			],
			"translation":[
				4.165363311767578,
				0,
				0.36763620376586914
			]
		},
		{
			"mesh":3,
			"name":"Plane.008",
			"scale":[
				4.852503299713135,
				4.852503299713135,
				4.852503299713135
			]
		},
		{
			"mesh":4,
			"name":"Wall Standard (Corner) Alt.006",
			"rotation":[
				0.5,
				0.5,
				-0.5,
				0.5
			],
			"scale":[
				0.009999999776482582,
				0.009999999776482582,
				0.009999999776482582
			],
			"translation":[
				-1.2079399824142456,
				0,
				2.0740740299224854
			]
		},
		{
			"mesh":5,
			"name":"Wall Standard (Door).011",
			"rotation":[
				0.7071068286895752,
				0,
				0,
				0.7071068286895752
			],
			"scale":[
				0.009999999776482582,
				0.009999999776482582,
				0.009999999776482582
			],
			"translation":[
				3.4076032638549805,
				0,
				-0.5427049994468689
			]
		},
		{
			"mesh":6,
			"name":"Wall Standard (Door).012",
			"rotation":[
				0.5,
				0.5,
				-0.5,
				0.5000000596046448
			],
			"scale":[
				0.009999999776482582,
				0.009999999776482582,
				0.009999999776482582
			],
			"translation":[
				4.15820837020874,
				0,
				0.3674803078174591
			]
		},
		{
			"mesh":7,
			"name":"Wall Standard Border.007",
			"rotation":[
				0.5,
				0.5,
				-0.5,
				0.5
			],
			"scale":[
				0.009999999776482582,
				0.009999999776482582,
				0.009999999776482582
			],
			"translation":[
				4.163904190063477,
				0,
				-0.5427054166793823
			]
		},
		{
			"mesh":8,
			"name":"Wall Standard Border.008",
			"rotation":[
				0.7071068286895752,
				0,
				0,
				0.7071068286895752
			],
			"scale":[
				0.009999999776482582,
				0.009999999776482582,
				0.009999999776482582
			],
			"translation":[
				4.9313740730285645,
				0,
				-0.5427054166793823
			]
		}
	],
	"materials":[
		{
			"doubleSided":true,
			"name":"Palette",
			"pbrMetallicRoughness":{
				"baseColorTexture":{
					"index":0
				},
				"metallicFactor":0,
				"roughnessFactor":0.5
			}
		},
		{
			"doubleSided":true,
			"name":"Wood TIles",
			"pbrMetallicRoughness":{
				"baseColorTexture":{
					"extensions":{
						"KHR_texture_transform":{
							"offset":[
								6.300000190734857,
								0.9999997246182346
							],
							"rotation":1.5707963705062866,
							"scale":[
								-11.399999618530273,
								-6.300000190734863
							]
						}
					},
					"index":1
				},
				"metallicFactor":0,
				"roughnessFactor":0.5
			}
		},
		{
			"doubleSided":true,
			"name":"Wooden Wall",
			"pbrMetallicRoughness":{
				"baseColorTexture":{
					"index":2
				},
				"metallicFactor":0,
				"roughnessFactor":0.5
			}
		}
	],
	"meshes":[
		{
			"name":"Cube.038",
			"primitives":[
				{
					"attributes":{
						"POSITION":0,
						"NORMAL":1,
						"TEXCOORD_0":2
					},
					"indices":3,
					"material":0
				}
			]
		},
		{
			"name":"Cube.042",
			"primitives":[
				{
					"attributes":{
						"POSITION":4,
						"NORMAL":5,
						"TEXCOORD_0":6
					},
					"indices":7,
					"material":0
				}
			]
		},
		{
			"name":"Cube.044",
			"primitives":[
				{
					"attributes":{
						"POSITION":8,
						"NORMAL":9,
						"TEXCOORD_0":10
					},
					"indices":3,
					"material":0
				}
			]
		},
		{
			"name":"Plane.002",
			"primitives":[
				{
					"attributes":{
						"POSITION":11,
						"NORMAL":12,
						"TEXCOORD_0":13
					},
					"indices":14,
					"material":1
				}
			]
		},
		{
			"name":"Cube.049",
			"primitives":[
				{
					"attributes":{
						"POSITION":15,
						"NORMAL":16,
						"TEXCOORD_0":17
					},
					"indices":18,
					"material":2
				}
			]
		},
		{
			"name":"Cube.050",
			"primitives":[
				{
					"attributes":{
						"POSITION":19,
						"NORMAL":20,
						"TEXCOORD_0":21
					},
					"indices":22,
					"material":2
				}
			]
		},
		{
			"name":"Cube.051",
			"primitives":[
				{
					"attributes":{
						"POSITION":23,
						"NORMAL":24,
						"TEXCOORD_0":25
					},
					"indices":26,
					"material":2
				}
			]
		},
		{
			"name":"Cube.043",
			"primitives":[
				{
					"attributes":{
						"POSITION":27,
						"NORMAL":28,
						"TEXCOORD_0":29
					},
					"indices":30,
					"material":0
				}
			]
		},
		{
			"name":"Cube.047",
			"primitives":[
				{
					"attributes":{
						"POSITION":31,
						"NORMAL":32,
						"TEXCOORD_0":33
					},
					"indices":30,
					"material":0
				}
			]
		}
	],
	"textures":[
		{
			"sampler":0,
			"source":0
		},
		{
			"sampler":1,
			"source":1
		},
		{
			"sampler":0,
			"source":2
		}
	],
	"images":[
		{
			"mimeType":"image/png",
			"name":"palette1",
			"uri":"../Textures/palette1.png"
		},
		{
			"mimeType":"image/jpeg",
			"name":"wood_floor_diff_512",
			"uri":"../Textures/wood_floor_diff_512.jpg"
		},
		{
			"mimeType":"image/png",
			"name":"wall4",
			"uri":"../Textures/wall4.png"
		}
	],
	"accessors":[
		{
			"bufferView":0,
			"componentType":5126,
			"count":176,
			"max":[
				60.47092056274414,
				13.846269607543945,
				0
			],
			"min":[
				-60.470909118652344,
				-13.846269607543945,
				-213.92030334472656
			],
			"type":"VEC3"
		},
		{
			"bufferView":1,
			"componentType":5126,
			"count":176,
			"type":"VEC3"
		},
		{
			"bufferView":2,
			"componentType":5126,
			"count":176,
			"type":"VEC2"
		},
		{
			"bufferView":3,
			"componentType":5123,
			"count":288,
			"type":"SCALAR"
		},
		{
			"bufferView":4,
			"componentType":5126,
			"count":20,
			"max":[
				112.99996948242188,
				533.5716552734375,
				1.922349474625662e-05
			],
			"min":[
				86.99996948242188,
				358.440673828125,
				-14.524676322937012
			],
			"type":"VEC3"
		},
		{
			"bufferView":5,
			"componentType":5126,
			"count":20,
			"type":"VEC3"
		},
		{
			"bufferView":6,
			"componentType":5126,
			"count":20,
			"type":"VEC2"
		},
		{
			"bufferView":7,
			"componentType":5123,
			"count":30,
			"type":"SCALAR"
		},
		{
			"bufferView":8,
			"componentType":5126,
			"count":176,
			"max":[
				60.47092056274414,
				13.846269607543945,
				0
			],
			"min":[
				-60.470909118652344,
				-13.846269607543945,
				-213.92030334472656
			],
			"type":"VEC3"
		},
		{
			"bufferView":9,
			"componentType":5126,
			"count":176,
			"type":"VEC3"
		},
		{
			"bufferView":10,
			"componentType":5126,
			"count":176,
			"type":"VEC2"
		},
		{
			"bufferView":11,
			"componentType":5126,
			"count":4,
			"max":[
				0.8555494546890259,
				0,
				0.22549277544021606
			],
			"min":[
				0.49215683341026306,
				0,
				-0.11511782556772232
			],
			"type":"VEC3"
		},
		{
			"bufferView":12,
			"componentType":5126,
			"count":4,
			"type":"VEC3"
		},
		{
			"bufferView":13,
			"componentType":5126,
			"count":4,
			"type":"VEC2"
		},
		{
			"bufferView":14,
			"componentType":5123,
			"count":6,
			"type":"SCALAR"
		},
		{
			"bufferView":15,
			"componentType":5126,
			"count":4,
			"max":[
				109.99996185302734,
				541.539306640625,
				-1.293959121539956e-05
			],
			"min":[
				109.99995422363281,
				357.936279296875,
				-299.9999694824219
			],
			"type":"VEC3"
		},
		{
			"bufferView":16,
			"componentType":5126,
			"count":4,
			"type":"VEC3"
		},
		{
			"bufferView":17,
			"componentType":5126,
			"count":4,
			"type":"VEC2"
		},
		{
			"bufferView":18,
			"componentType":5123,
			"count":6,
			"type":"SCALAR"
		},
		{
			"bufferView":19,
			"componentType":5126,
			"count":12,
			"max":[
				81.31572723388672,
				10.000003814697266,
				0
			],
			"min":[
				-100,
				10.000003814697266,
				-300
			],
			"type":"VEC3"
		},
		{
			"bufferView":20,
			"componentType":5126,
			"count":12,
			"type":"VEC3"
		},
		{
			"bufferView":21,
			"componentType":5126,
			"count":12,
			"type":"VEC2"
		},
		{
			"bufferView":22,
			"componentType":5123,
			"count":30,
			"type":"SCALAR"
		},
		{
			"bufferView":23,
			"componentType":5126,
			"count":12,
			"max":[
				95.80987548828125,
				-10.000001907348633,
				1.337913612363406e-13
			],
			"min":[
				-79.5032958984375,
				-10.000007629394531,
				-300
			],
			"type":"VEC3"
		},
		{
			"bufferView":24,
			"componentType":5126,
			"count":12,
			"type":"VEC3"
		},
		{
			"bufferView":25,
			"componentType":5126,
			"count":12,
			"type":"VEC2"
		},
		{
			"bufferView":26,
			"componentType":5123,
			"count":30,
			"type":"SCALAR"
		},
		{
			"bufferView":27,
			"componentType":5126,
			"count":24,
			"max":[
				2.676116943359375,
				13.00000286102295,
				2.3491413892254287e-13
			],
			"min":[
				-28.81643295288086,
				-13.00001049041748,
				-14.524686813354492
			],
			"type":"VEC3"
		},
		{
			"bufferView":28,
			"componentType":5126,
			"count":24,
			"type":"VEC3"
		},
		{
			"bufferView":29,
			"componentType":5126,
			"count":24,
			"type":"VEC2"
		},
		{
			"bufferView":30,
			"componentType":5123,
			"count":36,
			"type":"SCALAR"
		},
		{
			"bufferView":31,
			"componentType":5126,
			"count":24,
			"max":[
				-83.62134552001953,
				13,
				0
			],
			"min":[
				-100,
				-13,
				-14.524686813354492
			],
			"type":"VEC3"
		},
		{
			"bufferView":32,
			"componentType":5126,
			"count":24,
			"type":"VEC3"
		},
		{
			"bufferView":33,
			"componentType":5126,
			"count":24,
			"type":"VEC2"
		}
	],
	"bufferViews":[
		{
			"buffer":0,
			"byteLength":2112,
			"byteOffset":0,
			"target":34962
		},
		{
			"buffer":0,
			"byteLength":2112,
			"byteOffset":2112,
			"target":34962
		},
		{
			"buffer":0,
			"byteLength":1408,
			"byteOffset":4224,
			"target":34962
		},
		{
			"buffer":0,
			"byteLength":576,
			"byteOffset":5632,
			"target":34963
		},
		{
			"buffer":0,
			"byteLength":240,
			"byteOffset":6208,
			"target":34962
		},
		{
			"buffer":0,
			"byteLength":240,
			"byteOffset":6448,
			"target":34962
		},
		{
			"buffer":0,
			"byteLength":160,
			"byteOffset":6688,
			"target":34962
		},
		{
			"buffer":0,
			"byteLength":60,
			"byteOffset":6848,
			"target":34963
		},
		{
			"buffer":0,
			"byteLength":2112,
			"byteOffset":6908,
			"target":34962
		},
		{
			"buffer":0,
			"byteLength":2112,
			"byteOffset":9020,
			"target":34962
		},
		{
			"buffer":0,
			"byteLength":1408,
			"byteOffset":11132,
			"target":34962
		},
		{
			"buffer":0,
			"byteLength":48,
			"byteOffset":12540,
			"target":34962
		},
		{
			"buffer":0,
			"byteLength":48,
			"byteOffset":12588,
			"target":34962
		},
		{
			"buffer":0,
			"byteLength":32,
			"byteOffset":12636,
			"target":34962
		},
		{
			"buffer":0,
			"byteLength":12,
			"byteOffset":12668,
			"target":34963
		},
		{
			"buffer":0,
			"byteLength":48,
			"byteOffset":12680,
			"target":34962
		},
		{
			"buffer":0,
			"byteLength":48,
			"byteOffset":12728,
			"target":34962
		},
		{
			"buffer":0,
			"byteLength":32,
			"byteOffset":12776,
			"target":34962
		},
		{
			"buffer":0,
			"byteLength":12,
			"byteOffset":12808,
			"target":34963
		},
		{
			"buffer":0,
			"byteLength":144,
			"byteOffset":12820,
			"target":34962
		},
		{
			"buffer":0,
			"byteLength":144,
			"byteOffset":12964,
			"target":34962
		},
		{
			"buffer":0,
			"byteLength":96,
			"byteOffset":13108,
			"target":34962
		},
		{
			"buffer":0,
			"byteLength":60,
			"byteOffset":13204,
			"target":34963
		},
		{
			"buffer":0,
			"byteLength":144,
			"byteOffset":13264,
			"target":34962
		},
		{
			"buffer":0,
			"byteLength":144,
			"byteOffset":13408,
			"target":34962
		},
		{
			"buffer":0,
			"byteLength":96,
			"byteOffset":13552,
			"target":34962
		},
		{
			"buffer":0,
			"byteLength":60,
			"byteOffset":13648,
			"target":34963
		},
		{
			"buffer":0,
			"byteLength":288,
			"byteOffset":13708,
			"target":34962
		},
		{
			"buffer":0,
			"byteLength":288,
			"byteOffset":13996,
			"target":34962
		},
		{
			"buffer":0,
			"byteLength":192,
			"byteOffset":14284,
			"target":34962
		},
		{
			"buffer":0,
			"byteLength":72,
			"byteOffset":14476,
			"target":34963
		},
		{
			"buffer":0,
			"byteLength":288,
			"byteOffset":14548,
			"target":34962
		},
		{
			"buffer":0,
			"byteLength":288,
			"byteOffset":14836,
			"target":34962
		},
		{
			"buffer":0,
			"byteLength":192,
			"byteOffset":15124,
			"target":34962
		}
	],
	"samplers":[
		{
			"magFilter":9728,
			"minFilter":9984
		},
		{
			"magFilter":9729,
			"minFilter":9987
		}
	],
	"buffers":[
		{
			"byteLength":15316,
			"uri":"corridor_end.bin"
		}
	]
}
