{
	"asset":{
		"generator":"Khronos glTF Blender I/O v4.5.47",
		"version":"2.0"
	},
	"scene":0,
	"scenes":[
		{
			"name":"Scene",
			"nodes":[
				0,
				1
			]
		}
	],
	"nodes":[
		{
			"mesh":0,
			"name":"Ceiling Fan A.001",
			"rotation":[
				0.640042781829834,
				0.5206901431083679,
				-0.19555145502090454,
				0.5300816893577576
			],
			"scale":[
				0.009999999776482582,
				0.009999999776482582,
				0.009999999776482582
			],
			"translation":[
				4.903632640838623,
				0.6221469640731812,
				-2.9238107204437256
			]
		},
		{
			"mesh":1,
			"name":"Ceiling Fan Base.001",
			"rotation":[
				0.640042781829834,
				0.5206901431083679,
				-0.19555145502090454,
				0.5300816893577576
			],
			"scale":[
				0.009999999776482582,
				0.009999999776482582,
				0.009999999776482582
			],
			"translation":[
				4.903632640838623,
				0.6221469640731812,
				-2.9238107204437256
			]
		}
	],
	"materials":[
		{
			"doubleSided":true,
			"name":"Palette",
			"pbrMetallicRoughness":{
				"baseColorTexture":{
					"index":0
				},
				"metallicFactor":0,
				"roughnessFactor":0.5
			}
		}
	],
	"meshes":[
		{
			"name":"Cube.480",
			"primitives":[
				{
					"attributes":{
						"POSITION":0,
						"NORMAL":1,
						"TEXCOORD_0":2
					},
					"indices":3,
					"material":0
				}
			]
		},
		{
			"name":"Cube.481",
			"primitives":[
				{
					"attributes":{
						"POSITION":4,
						"NORMAL":5,
						"TEXCOORD_0":6
					},
					"indices":7,
					"material":0
				}
			]
		}
	],
	"textures":[
		{
			"sampler":0,
			"source":0
		}
	],
	"images":[
		{
			"mimeType":"image/png",
			"name":"palette1",
			"uri":"../Textures/palette1.png"
		}
	],
	"accessors":[
		{
			"bufferView":0,
			"componentType":5126,
			"count":368,
			"max":[
				87.5310287475586,
				87.3907241821289,
				9.520604133605957
			],
			"min":[
				-87.5310287475586,
				-87.3907241821289,
				8.151795387268066
			],
			"type":"VEC3"
		},
		{
			"bufferView":1,
			"componentType":5126,
			"count":368,
			"type":"VEC3"
		},
		{
			"bufferView":2,
			"componentType":5126,
			"count":368,
			"type":"VEC2"
		},
		{
			"bufferView":3,
			"componentType":5123,
			"count":960,
			"type":"SCALAR"
		},
		{
			"bufferView":4,
			"componentType":5126,
			"count":327,
			"max":[
				11.845096588134766,
				11.554479598999023,
				13.360506057739258
			],
			"min":[
				-11.845096588134766,
				-11.554479598999023,
				2.152553081512451
			],
			"type":"VEC3"
		},
		{
			"bufferView":5,
			"componentType":5126,
			"count":327,
			"type":"VEC3"
		},
		{
			"bufferView":6,
			"componentType":5126,
			"count":327,
			"type":"VEC2"
		},
		{
			"bufferView":7,
			"componentType":5123,
			"count":1368,
			"type":"SCALAR"
		}
	],
	"bufferViews":[
		{
			"buffer":0,
			"byteLength":4416,
			"byteOffset":0,
			"target":34962
		},
		{
			"buffer":0,
			"byteLength":4416,
			"byteOffset":4416,
			"target":34962
		},
		{
			"buffer":0,
			"byteLength":2944,
			"byteOffset":8832,
			"target":34962
		},
		{
			"buffer":0,
			"byteLength":1920,
			"byteOffset":11776,
			"target":34963
		},
		{
			"buffer":0,
			"byteLength":3924,
			"byteOffset":13696,
			"target":34962
		},
		{
			"buffer":0,
			"byteLength":3924,
			"byteOffset":17620,
			"target":34962
		},
		{
			"buffer":0,
			"byteLength":2616,
			"byteOffset":21544,
			"target":34962
		},
		{
			"buffer":0,
			"byteLength":2736,
			"byteOffset":24160,
			"target":34963
		}
	],
	"samplers":[
		{
			"magFilter":9728,
			"minFilter":9984
		}
	],
	"buffers":[
		{
			"byteLength":26896,
			"uri":"fan.bin"
		}
	]
}
