{
	"asset":{
		"generator":"Khronos glTF Blender I/O v4.5.47",
		"version":"2.0"
	},
	"scene":0,
	"scenes":[
		{
			"name":"Scene",
			"nodes":[
				1
			]
		}
	],
	"nodes":[
		{
			"mesh":0,
			"name":"Door Handle 3.001",
			"scale":[
				1,
				1,
				1.8316195011138916
			],
			"translation":[
				-93.61566925048828,
				7.667731285095215,
				-100.34883880615234
			]
		},
		{
			"children":[
				0
			],
			"mesh":1,
			"name":"Door 3.001",
			"rotation":[
				0,
				-0.7071068286895752,
				0,
				0.7071068286895752
			],
			"scale":[
				0.011356609873473644,
				0.009999999776482582,
				0.0054596490226686
			],
			"translation":[
				5.1890668869018555,
				0.0380408950150013,
				3.5477466583251953
			]
		}
	],
	"materials":[
		{
			"doubleSided":true,
			"name":"Palette",
			"pbrMetallicRoughness":{
				"baseColorTexture":{
					"index":0
				},
				"metallicFactor":0,
				"roughnessFactor":0.5
			}
		},
		{
			"name":"Dark Brown",
			"pbrMetallicRoughness":{
				"baseColorFactor":[
					0.0783495381474495,
					0.0129498690366745,
					0.003858471754938364,
					1
				],
				"metallicFactor":0,
				"roughnessFactor":0.6000000238418579
			}
		}
	],
	"meshes":[
		{
			"name":"Cube.357",
			"primitives":[
				{
					"attributes":{
						"POSITION":0,
						"NORMAL":1,
						"TEXCOORD_0":2
					},
					"indices":3,
					"material":0
				}
			]
		},
		{
			"name":"Cube.358",
			"primitives":[
				{
					"attributes":{
						"POSITION":4,
						"NORMAL":5,
						"TEXCOORD_0":6
					},
					"indices":7,
					"material":1
				}
			]
		}
	],
	"textures":[
		{
			"sampler":0,
			"source":0
		}
	],
	"images":[
		{
			"mimeType":"image/png",
			"name":"palette1",
			"uri":"../Textures/palette1.png"
		}
	],
	"accessors":[
		{
			"bufferView":0,
			"componentType":5126,
			"count":94,
			"max":[
				3.5942468643188477,
				4.6199822425842285,
				16.572860717773438
			],
			"min":[
				-3.5942468643188477,
				-5.481476783752441,
				-16.572860717773438
			],
			"type":"VEC3"
		},
		{
			"bufferView":1,
			"componentType":5126,
			"count":94,
			"type":"VEC3"
		},
		{
			"bufferView":2,
			"componentType":5126,
			"count":94,
			"type":"VEC2"
		},
		{
			"bufferView":3,
			"componentType":5123,
			"count":216,
			"type":"SCALAR"
		},
		{
			"bufferView":4,
			"componentType":5126,
			"count":120,
			"max":[
				0,
				4.353878974914551,
				0.45395493507385254
			],
			"min":[
				-101.45189666748047,
				-4.353878974914551,
				-202.03408813476562
			],
			"type":"VEC3"
		},
		{
			"bufferView":5,
			"componentType":5126,
			"count":120,
			"type":"VEC3"
		},
		{
			"bufferView":6,
			"componentType":5126,
			"count":120,
			"type":"VEC2"
		},
		{
			"bufferView":7,
			"componentType":5123,
			"count":228,
			"type":"SCALAR"
		}
	],
	"bufferViews":[
		{
			"buffer":0,
			"byteLength":1128,
			"byteOffset":0,
			"target":34962
		},
		{
			"buffer":0,
			"byteLength":1128,
			"byteOffset":1128,
			"target":34962
		},
		{
			"buffer":0,
			"byteLength":752,
			"byteOffset":2256,
			"target":34962
		},
		{
			"buffer":0,
			"byteLength":432,
			"byteOffset":3008,
			"target":34963
		},
		{
			"buffer":0,
			"byteLength":1440,
			"byteOffset":3440,
			"target":34962
		},
		{
			"buffer":0,
			"byteLength":1440,
			"byteOffset":4880,
			"target":34962
		},
		{
			"buffer":0,
			"byteLength":960,
			"byteOffset":6320,
			"target":34962
		},
		{
			"buffer":0,
			"byteLength":456,
			"byteOffset":7280,
			"target":34963
		}
	],
	"samplers":[
		{
			"magFilter":9728,
			"minFilter":9984
		}
	],
	"buffers":[
		{
			"byteLength":7736,
			"uri":"trapdoor.bin"
		}
	]
}
